<svg width="300" height="300" viewBox="0 0 300 300" fill="none" xmlns="http://www.w3.org/2000/svg">
<path d="M92.4356 46.9869L208.034 47.7131C231.782 47.8623 250.912 67.2347 250.763 90.9824L250.015 210.129C249.865 233.877 230.493 253.007 206.745 252.858L91.1469 252.132C67.3991 251.983 48.2687 232.61 48.4178 208.863L49.1664 89.716C49.3155 65.9682 68.6879 46.8378 92.4356 46.9869Z" stroke="black" stroke-width="14"/>
<path d="M176.028 225.64L109.433 226.379L108.499 142.385L175.095 141.645L175.282 158.444L130.285 158.944L130.465 175.143L165.863 174.749L166.049 191.548L130.651 191.942L130.845 209.341L175.842 208.841L176.028 225.64ZM226.157 203.481C226.244 211.321 224.468 217.101 220.83 220.822C217.191 224.542 211.531 226.445 203.852 226.531C196.252 226.615 188.168 226.305 179.6 225.6L179.42 209.401C185.664 209.732 192.066 209.861 198.626 209.788C200.465 209.767 201.9 209.231 202.928 208.18C204.036 207.047 204.579 205.561 204.559 203.721L204.052 158.124L188.453 158.297L188.266 141.498L225.464 141.085L226.157 203.481Z" fill="black"/>
</svg>
