 <svg width="150" height="150" viewBox="0 0 150 150" fill="none" xmlns="http://www.w3.org/2000/svg">
<rect width="150" height="150" fill="white"/>
<circle cx="75.5" cy="75.5" r="69" stroke="black" stroke-width="7"/>
<path d="M39.3 109V41.5H73.59L72.51 52.03H52.53V68.14H66.75L66.66 79.48H52.53V98.47H74.31L73.23 109H39.3ZM87.3959 110.26C84.9959 110.26 82.1759 109.81 78.9359 108.91V100C80.1959 100.42 81.3659 100.63 82.4459 100.63C84.6059 100.63 85.9559 99.82 86.4959 98.2C87.0959 96.58 87.3959 94.18 87.3959 91V42.58L100.536 41.5V92.08C100.536 97.9 99.5159 102.4 97.4759 105.58C95.4959 108.7 92.1359 110.26 87.3959 110.26ZM110.098 109.54V96.31H122.698V108.46L110.098 109.54Z" fill="black"/>
<path d="M39.3 109H38.3V110H39.3V109ZM39.3 41.5V40.5H38.3V41.5H39.3ZM73.59 41.5L74.5848 41.602L74.6978 40.5H73.59V41.5ZM72.51 52.03V53.03H73.4127L73.5048 52.132L72.51 52.03ZM52.53 52.03V51.03H51.53V52.03H52.53ZM52.53 68.14H51.53V69.14H52.53V68.14ZM66.75 68.14L67.75 68.1479L67.758 67.14H66.75V68.14ZM66.66 79.48V80.48H67.6521L67.66 79.4879L66.66 79.48ZM52.53 79.48V78.48H51.53V79.48H52.53ZM52.53 98.47H51.53V99.47H52.53V98.47ZM74.31 98.47L75.3048 98.572L75.4178 97.47H74.31V98.47ZM73.23 109V110H74.1327L74.2248 109.102L73.23 109ZM40.3 109V41.5H38.3V109H40.3ZM39.3 42.5H73.59V40.5H39.3V42.5ZM72.5952 41.398L71.5152 51.928L73.5048 52.132L74.5848 41.602L72.5952 41.398ZM72.51 51.03H52.53V53.03H72.51V51.03ZM51.53 52.03V68.14H53.53V52.03H51.53ZM52.53 69.14H66.75V67.14H52.53V69.14ZM65.75 68.1321L65.66 79.4721L67.66 79.4879L67.75 68.1479L65.75 68.1321ZM66.66 78.48H52.53V80.48H66.66V78.48ZM51.53 79.48V98.47H53.53V79.48H51.53ZM52.53 99.47H74.31V97.47H52.53V99.47ZM73.3152 98.368L72.2352 108.898L74.2248 109.102L75.3048 98.572L73.3152 98.368ZM73.23 108H39.3V110H73.23V108ZM78.9359 108.91H77.9359V109.67L78.6682 109.874L78.9359 108.91ZM78.9359 100L79.2521 99.0513L77.9359 98.6126V100H78.9359ZM86.4959 98.2L85.5581 97.8527L85.5524 97.8681L85.5472 97.8838L86.4959 98.2ZM87.3959 42.58L87.3139 41.5834L86.3959 41.6588V42.58H87.3959ZM100.536 41.5H101.536V40.4144L100.454 40.5034L100.536 41.5ZM97.4759 105.58L96.6342 105.04L96.6315 105.044L97.4759 105.58ZM87.3959 109.26C85.1144 109.26 82.3883 108.831 79.2035 107.946L78.6682 109.874C81.9634 110.789 84.8773 111.26 87.3959 111.26V109.26ZM79.9359 108.91V100H77.9359V108.91H79.9359ZM78.6196 100.949C79.9591 101.395 81.237 101.63 82.4459 101.63V99.63C81.4948 99.63 80.4327 99.4448 79.2521 99.0513L78.6196 100.949ZM82.4459 101.63C83.6424 101.63 84.715 101.407 85.5929 100.88C86.4905 100.341 87.1059 99.532 87.4445 98.5162L85.5472 97.8838C85.3458 98.488 85.0162 98.8936 84.5639 99.165C84.0917 99.4483 83.4094 99.63 82.4459 99.63V101.63ZM87.4336 98.5473C88.096 96.7588 88.3959 94.2162 88.3959 91H86.3959C86.3959 94.1438 86.0957 96.4012 85.5581 97.8527L87.4336 98.5473ZM88.3959 91V42.58H86.3959V91H88.3959ZM87.4778 43.5766L100.618 42.4966L100.454 40.5034L87.3139 41.5834L87.4778 43.5766ZM99.5359 41.5V92.08H101.536V41.5H99.5359ZM99.5359 92.08C99.5359 97.8043 98.5291 102.086 96.6342 105.04L98.3176 106.12C100.503 102.714 101.536 97.9957 101.536 92.08H99.5359ZM96.6315 105.044C94.8869 107.793 91.9033 109.26 87.3959 109.26V111.26C92.3684 111.26 96.1048 109.607 98.3202 106.116L96.6315 105.044ZM110.098 109.54H109.098V110.629L110.183 110.536L110.098 109.54ZM110.098 96.31V95.31H109.098V96.31H110.098ZM122.698 96.31H123.698V95.31H122.698V96.31ZM122.698 108.46L122.783 109.456L123.698 109.378V108.46H122.698ZM111.098 109.54V96.31H109.098V109.54H111.098ZM110.098 97.31H122.698V95.31H110.098V97.31ZM121.698 96.31V108.46H123.698V96.31H121.698ZM122.612 107.464L110.012 108.544L110.183 110.536L122.783 109.456L122.612 107.464Z" fill="black"/>
</svg>
